<svg width="714" height="736" viewBox="0 0 714 736" fill="none" xmlns="http://www.w3.org/2000/svg">
<g clip-path="url(#clip0_13_108)">
<rect x="0.35" y="-0.35" width="6.3" height="6.3" transform="matrix(1 0 0 -1 252 93.3)" stroke="#FF4457" stroke-width="0.7"/>
<rect x="0.35" y="-0.35" width="2.3" height="2.3" transform="matrix(1 0 0 -1 212 305.3)" stroke="#FF4457" stroke-width="0.7"/>
<rect x="0.35" y="-0.35" width="2.3" height="2.3" transform="matrix(1 0 0 -1 212 275.3)" stroke="#FF4457" stroke-width="0.7"/>
<rect x="0.35" y="-0.35" width="2.3" height="2.3" transform="matrix(1 0 0 -1 212 335.3)" stroke="#FF4457" stroke-width="0.7"/>
<rect x="0.35" y="-0.35" width="2.3" height="2.3" transform="matrix(1 0 0 -1 242 651.3)" stroke="#FF4457" stroke-width="0.7"/>
<rect width="4" height="3" transform="matrix(1 0 0 -1 161 520)" fill="#FF4457"/>
<rect width="4" height="3" transform="matrix(1 0 0 -1 212 520)" fill="#FF4457"/>
<rect x="0.25" y="-0.25" width="3.5" height="2.5" transform="matrix(1 0 0 -1 245 519.5)" stroke="#FF4457" stroke-width="0.5"/>
<rect x="0.5" y="-0.5" width="2" height="1" transform="matrix(1 0 0 -1 604 521)" stroke="#FF4457"/>
<rect x="0.25" y="-0.25" width="3.5" height="2.5" transform="matrix(1 0 0 -1 297 519.5)" stroke="#FF4457" stroke-width="0.5"/>
<rect x="161" y="524" width="25" height="1" fill="#FF4457"/>
<rect width="4" height="3" transform="matrix(1 0 0 -1 32 60)" fill="#FF4457"/>
<rect width="7" height="7" transform="matrix(1 0 0 -1 18 294)" fill="#FF4457"/>
<rect width="4" height="3" transform="matrix(1 0 0 -1 44 192)" fill="#FF4457"/>
<rect width="4" height="3" transform="matrix(1 0 0 -1 297 235)" fill="#FF4457"/>
<rect x="0.5" y="-0.5" width="1" height="1" transform="matrix(1 0 0 -1 712 43)" stroke="#FF4457"/>
<rect x="0.5" y="-0.5" width="1" height="1" transform="matrix(1 0 0 -1 560 21)" stroke="#FF4457"/>
<rect x="0.5" y="-0.5" width="1" height="1" transform="matrix(1 0 0 -1 76 61)" stroke="#FF4457"/>
<rect x="0.5" y="-0.5" width="1" height="1" transform="matrix(1 0 0 -1 83 61)" stroke="#FF4457"/>
<rect x="0.25" y="-0.25" width="4.5" height="2.5" transform="matrix(1 0 0 -1 319 234.5)" stroke="#FF4457" stroke-width="0.5"/>
<rect width="4" height="3" transform="matrix(1 0 0 -1 358 11)" fill="#FF4457"/>
<rect x="0.5" y="-0.5" width="1" height="1" transform="matrix(1 0 0 -1 343 16)" stroke="#FF4457"/>
<rect x="0.5" y="-0.5" width="1" height="1" transform="matrix(1 0 0 -1 4 599)" stroke="#FF4457"/>
<rect x="235" y="93" width="5" height="1" transform="rotate(180 235 93)" fill="#FF4457"/>
<rect x="259" y="117" width="7" height="1" transform="rotate(180 259 117)" fill="#FF4457"/>
<rect width="2" height="2" transform="matrix(1 0 0 -1 18 306)" fill="#FF4457"/>
<rect x="35" y="364" width="4" height="1" fill="#FF4457"/>
<rect x="-1" y="364" width="5" height="1" fill="#FF4457"/>
<rect width="3" height="2" transform="matrix(-1 0 0 1 141 546)" fill="#FF4457"/>
<rect x="301" y="421" width="5" height="1" transform="rotate(180 301 421)" fill="#FF4457"/>
<rect width="2" height="2" transform="matrix(1 0 0 -1 18 300)" fill="#FF4457"/>
<rect x="441" y="307" width="16" height="1" transform="rotate(180 441 307)" fill="#FF4457"/>
<rect x="409" y="307" width="16" height="1" transform="rotate(180 409 307)" fill="#FF4457"/>
<rect width="7" height="5.25" transform="matrix(1 0 0 -1 506 422.25)" fill="#FF4457"/>
<rect x="351" y="603" width="16" height="2" fill="#FF4457"/>
<rect x="675" y="550" width="5" height="1" fill="#FF4457"/>
<rect width="7" height="7" transform="matrix(1 0 0 -1 70 652)" fill="#FF4457"/>
<rect width="4" height="3" transform="matrix(1 0 0 -1 585 680)" fill="#FF4457"/>
<rect width="3" height="2" transform="matrix(1 0 0 -1 604 550)" fill="#FF4457"/>
<rect x="0.5" y="-0.5" width="1" height="1" transform="matrix(1 0 0 -1 605 679)" stroke="#FF4457"/>
<rect x="0.5" y="-0.5" width="1" height="1" transform="matrix(1 0 0 -1 639 679)" stroke="#FF4457"/>
<rect x="0.5" y="-0.5" width="1" height="1" transform="matrix(1 0 0 -1 646 679)" stroke="#FF4457"/>
<rect x="0.5" y="-0.5" width="2" height="1" transform="matrix(1 0 0 -1 624 549)" stroke="#FF4457"/>
<rect width="2" height="2" transform="matrix(1 0 0 -1 141 724)" fill="#FF4457"/>
<rect x="126" y="722" width="4" height="1" fill="#FF4457"/>
<rect width="3" height="2" transform="matrix(1 0 0 -1 156 724)" fill="#FF4457"/>
<rect width="5" height="3" transform="matrix(1 0 0 -1 425 140)" fill="#FF4457"/>
<rect x="0.25" y="-0.25" width="3.5" height="2.5" transform="matrix(1 0 0 -1 455 139.5)" stroke="#FF4457" stroke-width="0.5"/>
<rect width="4" height="3" transform="matrix(1 0 0 -1 503 140)" fill="#FF4457"/>
<rect x="482" y="144" width="25" height="1" fill="#FF4457"/>
<rect width="2" height="2" transform="matrix(1 0 0 -1 678 203)" fill="#FF4457"/>
<rect x="663" y="202" width="4" height="1" fill="#FF4457"/>
<rect width="2" height="2" transform="matrix(1 0 0 -1 693 203)" fill="#FF4457"/>
</g>
<defs>
<clipPath id="clip0_13_108">
<rect width="714" height="736" fill="white"/>
</clipPath>
</defs>
</svg>
